<svg xmlns="http://www.w3.org/2000/svg" xmlns:xlink="http://www.w3.org/1999/xlink" width="200" zoomAndPan="magnify" viewBox="0 0 150 112.499997" height="150" preserveAspectRatio="xMidYMid meet" version="1.2"><defs><clipPath id="0728613581"><path d="M 0.332031 65 L 71 65 L 71 100 L 0.332031 100 Z M 0.332031 65 "/></clipPath><clipPath id="b1775102fa"><path d="M 79 65 L 149.667969 65 L 149.667969 100 L 79 100 Z M 79 65 "/></clipPath><clipPath id="63d67a2459"><path d="M 56 11.199219 L 93 11.199219 L 93 76 L 56 76 Z M 56 11.199219 "/></clipPath></defs><g id="bcc0059a71"><path style=" stroke:none;fill-rule:nonzero;fill:#cdab34;fill-opacity:1;" d="M 114.375 40.488281 C 114.132812 37.261719 113.726562 34.042969 113.175781 30.855469 C 112.789062 28.601562 112.335938 26.351562 111.78125 24.128906 C 111.722656 24.148438 111.664062 24.164062 111.605469 24.179688 C 107.5625 25.363281 103.589844 26.828125 99.722656 28.503906 C 96.722656 29.800781 93.816406 31.265625 90.9375 32.816406 C 96.054688 27.96875 102.761719 24.457031 109.410156 22.207031 C 110.757812 21.746094 112.214844 21.351562 113.597656 20.980469 C 113.972656 22.355469 114.359375 23.828125 114.632812 25.222656 C 115.292969 28.480469 115.6875 31.808594 115.773438 35.128906 C 115.867188 38.949219 115.585938 42.808594 114.683594 46.527344 C 114.617188 44.503906 114.53125 42.496094 114.375 40.488281 Z M 114.375 40.488281 "/><g clip-rule="nonzero" clip-path="url(#0728613581)"><path style=" stroke:none;fill-rule:nonzero;fill:#cdab34;fill-opacity:1;" d="M 0.925781 71.53125 C 4.914062 69.1875 9.175781 67.292969 13.582031 65.890625 L 14.007812 65.757812 C 13.46875 66.011719 12.9375 66.273438 12.402344 66.527344 C 8.925781 68.238281 5.539062 70.148438 2.332031 72.316406 C 4.835938 75.808594 7.660156 79.089844 10.703125 82.117188 C 13.902344 85.28125 17.394531 88.164062 21.199219 90.570312 C 28.019531 94.859375 34.921875 97.082031 43.011719 96.976562 C 48.355469 96.921875 53.65625 95.917969 58.765625 94.382812 C 62.746094 93.207031 66.628906 91.589844 70.398438 89.890625 C 70.398438 89.890625 70.265625 89.90625 70.265625 89.90625 L 70.394531 89.871094 L 70.453125 89.855469 C 70.453125 89.855469 70.402344 89.890625 70.402344 89.890625 C 69.925781 90.199219 69.273438 90.589844 68.800781 90.890625 C 59.191406 96.695312 47.289062 100.425781 36 98.910156 C 27.648438 97.804688 20 93.550781 13.710938 88.078125 C 8.597656 83.613281 4.214844 78.335938 0.714844 72.523438 L 0.332031 71.882812 C 0.332031 71.882812 0.929688 71.527344 0.929688 71.527344 Z M 0.925781 71.53125 "/></g><g clip-rule="nonzero" clip-path="url(#b1775102fa)"><path style=" stroke:none;fill-rule:nonzero;fill:#cdab34;fill-opacity:1;" d="M 102.097656 96.671875 C 106.929688 97.214844 111.878906 97.082031 116.609375 95.90625 C 123.339844 94.242188 129.414062 90.640625 134.738281 86.253906 C 139.621094 82.195312 143.957031 77.464844 147.667969 72.316406 C 143.96875 69.8125 140.03125 67.660156 135.988281 65.761719 C 140.550781 67.167969 144.953125 69.117188 149.070312 71.535156 L 149.664062 71.886719 C 149.664062 71.886719 149.285156 72.523438 149.285156 72.523438 C 144.335938 80.675781 137.699219 87.933594 129.613281 93.046875 C 124.878906 96.019531 119.5625 98.175781 114 98.914062 C 103.625 100.292969 93.035156 97.320312 83.929688 92.449219 C 82.632812 91.761719 81.371094 91.003906 80.132812 90.21875 C 79.953125 90.109375 79.777344 90 79.601562 89.882812 C 83.394531 91.652344 87.246094 93.1875 91.234375 94.386719 C 94.78125 95.453125 98.414062 96.253906 102.097656 96.671875 Z M 102.097656 96.671875 "/></g><path style=" stroke:none;fill-rule:nonzero;fill:#cdab34;fill-opacity:1;" d="M 44.738281 26.285156 C 42.585938 25.496094 40.414062 24.761719 38.214844 24.128906 C 38.199219 24.1875 38.183594 24.25 38.167969 24.308594 C 37.175781 28.402344 36.453125 32.574219 35.972656 36.761719 C 35.59375 40.003906 35.410156 43.257812 35.3125 46.527344 C 33.671875 39.667969 33.984375 32.105469 35.363281 25.222656 C 35.636719 23.828125 36.027344 22.363281 36.394531 20.980469 C 37.773438 21.34375 39.242188 21.746094 40.585938 22.207031 C 43.742188 23.261719 46.816406 24.585938 49.738281 26.171875 C 53.097656 28 56.292969 30.175781 59.0625 32.816406 C 57.277344 31.863281 55.5 30.929688 53.679688 30.0625 C 50.765625 28.660156 47.773438 27.40625 44.738281 26.285156 Z M 44.738281 26.285156 "/><path style=" stroke:none;fill-rule:nonzero;fill:#cdab34;fill-opacity:1;" d="M 76.75 87.378906 C 87.425781 89.453125 98.855469 89.734375 109.285156 86.285156 C 121.488281 82.355469 129.894531 71.929688 135.113281 60.621094 C 135.648438 59.472656 136.167969 58.269531 136.640625 57.09375 C 137.445312 55.09375 138.171875 53.058594 138.792969 50.996094 C 136.273438 50.355469 133.703125 49.867188 131.128906 49.5 C 123.171875 48.386719 114.933594 48.457031 107.15625 50.617188 C 104.726562 51.300781 102.347656 52.191406 100.09375 53.332031 C 97.816406 54.472656 95.675781 55.871094 93.664062 57.429688 C 95.699219 55.484375 97.984375 53.753906 100.441406 52.363281 C 101.886719 51.53125 103.4375 50.792969 104.984375 50.171875 C 112.824219 47.050781 121.511719 46.386719 129.863281 47.148438 C 133.878906 47.515625 137.875 48.21875 141.765625 49.28125 C 140.765625 53.328125 139.394531 57.277344 137.699219 61.082031 C 134.53125 68.160156 130.199219 74.835938 124.410156 80.054688 C 121.25 82.90625 117.625 85.253906 113.683594 86.867188 C 104.457031 90.648438 94.09375 90.886719 84.378906 89.203125 C 82.023438 88.789062 79.664062 88.253906 77.371094 87.578125 L 76.746094 87.390625 C 76.746094 87.390625 76.753906 87.382812 76.753906 87.382812 Z M 76.75 87.378906 "/><g clip-rule="nonzero" clip-path="url(#63d67a2459)"><path style=" stroke:none;fill-rule:nonzero;fill:#cdab34;fill-opacity:1;" d="M 57.457031 56.742188 C 54.351562 43.074219 60.261719 29.132812 68.574219 18.453125 C 70.550781 15.90625 72.6875 13.488281 75.003906 11.242188 C 77.410156 13.636719 79.609375 16.214844 81.628906 18.929688 C 83.476562 21.414062 85.171875 24.027344 86.652344 26.746094 C 89.605469 32.167969 91.789062 38.089844 92.484375 44.25 C 92.578125 45.109375 92.652344 46.015625 92.679688 46.882812 C 92.722656 47.761719 92.707031 48.640625 92.679688 49.515625 C 92.578125 47.328125 92.304688 45.15625 91.847656 43.023438 C 91.449219 41.121094 90.898438 39.207031 90.253906 37.371094 C 89.03125 33.890625 87.417969 30.546875 85.546875 27.371094 C 83.894531 24.570312 82.027344 21.894531 80.007812 19.347656 C 79.339844 18.5 78.636719 17.664062 77.933594 16.84375 C 76.992188 15.757812 76.015625 14.6875 75.011719 13.664062 C 66.5625 22.625 59.425781 34.269531 58.171875 46.675781 C 57.804688 50.402344 58.082031 54.175781 58.835938 57.839844 C 60.125 64.027344 62.722656 69.878906 65.921875 75.304688 C 62.550781 70.542969 59.847656 65.296875 58.195312 59.679688 C 57.910156 58.726562 57.679688 57.710938 57.460938 56.742188 Z M 57.457031 56.742188 "/></g><path style=" stroke:none;fill-rule:nonzero;fill:#cdab34;fill-opacity:1;" d="M 65.921875 75.304688 C 67.035156 76.742188 68.164062 78.152344 69.34375 79.53125 C 71.125 81.625 73 83.65625 74.972656 85.574219 C 75.109375 85.425781 75.246094 85.277344 75.375 85.132812 C 78.710938 81.441406 81.722656 77.449219 84.34375 73.214844 C 88.761719 66.039062 92.023438 57.980469 92.679688 49.519531 C 93.269531 57.027344 90.953125 64.640625 87.492188 71.234375 C 85.222656 75.554688 82.394531 79.582031 79.183594 83.253906 C 77.859375 84.769531 76.445312 86.222656 74.96875 87.601562 L 74.496094 87.097656 C 72.816406 85.324219 71.269531 83.429688 69.824219 81.460938 C 68.398438 79.496094 67.066406 77.449219 65.917969 75.308594 Z M 65.921875 75.304688 "/><path style=" stroke:none;fill-rule:nonzero;fill:#cdab34;fill-opacity:1;" d="M 36.9375 87.117188 C 26.625 83.144531 18.992188 74.300781 14.027344 64.667969 C 13.320312 63.3125 12.644531 61.875 12.035156 60.472656 C 10.457031 56.855469 9.183594 53.109375 8.234375 49.28125 C 12.628906 48.082031 17.152344 47.339844 21.691406 47.019531 C 29.6875 46.472656 37.917969 47.261719 45.382812 50.316406 C 46.316406 50.703125 47.300781 51.15625 48.199219 51.617188 C 48.730469 51.890625 49.386719 52.257812 49.898438 52.550781 C 52.226562 53.917969 54.398438 55.570312 56.339844 57.429688 C 54.328125 55.871094 52.1875 54.472656 49.90625 53.332031 C 47.65625 52.191406 45.273438 51.300781 42.847656 50.617188 C 35.3125 48.523438 27.339844 48.394531 19.621094 49.398438 C 16.792969 49.777344 13.972656 50.292969 11.207031 50.996094 C 11.582031 52.242188 11.996094 53.480469 12.441406 54.703125 C 14.195312 59.503906 16.410156 64.164062 19.167969 68.472656 C 23.035156 74.515625 28.046875 79.964844 34.339844 83.480469 C 39.929688 86.597656 46.269531 88.136719 52.613281 88.675781 C 56.042969 88.96875 59.5 88.972656 62.941406 88.746094 C 66.394531 88.519531 69.839844 88.066406 73.253906 87.390625 L 72.628906 87.582031 C 72.417969 87.644531 72.210938 87.699219 72 87.761719 C 70.742188 88.117188 69.472656 88.429688 68.191406 88.703125 C 57.910156 90.882812 46.851562 90.964844 36.941406 87.121094 Z M 36.9375 87.117188 "/></g></svg>