<svg xmlns="http://www.w3.org/2000/svg" xmlns:xlink="http://www.w3.org/1999/xlink" width="400" zoomAndPan="magnify" viewBox="0 0 300 149.999998" height="200" preserveAspectRatio="xMidYMid meet" version="1.2"><defs><clipPath id="eae5b1c845"><path d="M 81.195312 54 L 146 54 L 146 86 L 81.195312 86 Z M 81.195312 54 "/></clipPath><clipPath id="1efac8037a"><path d="M 154 54 L 218.445312 54 L 218.445312 86 L 154 86 Z M 154 54 "/></clipPath><clipPath id="c564a4493a"><path d="M 133 4.519531 L 167 4.519531 L 167 64 L 133 64 Z M 133 4.519531 "/></clipPath><clipPath id="f900a79dcb"><rect x="0" width="296" y="0" height="27"/></clipPath><clipPath id="1f2fd709a8"><path d="M 247 101.175781 L 254 101.175781 L 254 118.425781 L 247 118.425781 Z M 247 101.175781 "/></clipPath><clipPath id="60f116d570"><path d="M 242.152344 106 L 248 106 L 248 118.425781 L 242.152344 118.425781 Z M 242.152344 106 "/></clipPath><clipPath id="2610669078"><path d="M 254 106 L 259 106 L 259 118.425781 L 254 118.425781 Z M 254 106 "/></clipPath><clipPath id="c978b0256f"><path d="M 242.152344 115 L 244 115 L 244 118.425781 L 242.152344 118.425781 Z M 242.152344 115 "/></clipPath><clipPath id="19a252955c"><path d="M 257 115 L 259.402344 115 L 259.402344 118.425781 L 257 118.425781 Z M 257 115 "/></clipPath><clipPath id="620725136a"><path d="M 0.480469 5 L 7 5 L 7 13 L 0.480469 13 Z M 0.480469 5 "/></clipPath><clipPath id="3939ade07b"><rect x="0" width="51" y="0" height="16"/></clipPath><clipPath id="b90d72f87e"><rect x="0" width="10" y="0" height="27"/></clipPath></defs><g id="14c50b935a"><path style=" stroke:none;fill-rule:nonzero;fill:#cdab34;fill-opacity:1;" d="M 186.277344 31.507812 C 186.050781 28.535156 185.675781 25.570312 185.171875 22.632812 C 184.8125 20.554688 184.394531 18.480469 183.886719 16.433594 C 183.832031 16.449219 183.777344 16.464844 183.722656 16.480469 C 180 17.574219 176.339844 18.921875 172.773438 20.464844 C 170.011719 21.65625 167.332031 23.011719 164.679688 24.441406 C 169.394531 19.972656 175.574219 16.734375 181.703125 14.664062 C 182.941406 14.238281 184.285156 13.875 185.558594 13.53125 C 185.90625 14.800781 186.261719 16.15625 186.515625 17.441406 C 187.125 20.441406 187.484375 23.507812 187.566406 26.570312 C 187.652344 30.089844 187.390625 33.644531 186.558594 37.070312 C 186.496094 35.210938 186.421875 33.359375 186.277344 31.507812 Z M 186.277344 31.507812 "/><g clip-rule="nonzero" clip-path="url(#eae5b1c845)"><path style=" stroke:none;fill-rule:nonzero;fill:#cdab34;fill-opacity:1;" d="M 81.742188 60.113281 C 85.417969 57.953125 89.34375 56.203125 93.402344 54.914062 L 93.796875 54.792969 C 93.300781 55.023438 92.808594 55.265625 92.316406 55.503906 C 89.113281 57.078125 85.992188 58.835938 83.035156 60.835938 C 85.34375 64.050781 87.949219 67.074219 90.75 69.867188 C 93.699219 72.78125 96.917969 75.4375 100.421875 77.652344 C 106.707031 81.605469 113.066406 83.65625 120.523438 83.554688 C 125.445312 83.503906 130.328125 82.582031 135.035156 81.167969 C 138.703125 80.082031 142.28125 78.59375 145.753906 77.027344 C 145.753906 77.027344 145.632812 77.039062 145.632812 77.039062 L 145.75 77.007812 L 145.804688 76.992188 C 145.804688 76.992188 145.757812 77.027344 145.757812 77.027344 C 145.320312 77.3125 144.71875 77.671875 144.285156 77.949219 C 135.429688 83.296875 124.460938 86.734375 114.058594 85.339844 C 106.363281 84.320312 99.316406 80.402344 93.523438 75.359375 C 88.8125 71.246094 84.773438 66.378906 81.546875 61.027344 L 81.195312 60.4375 C 81.195312 60.4375 81.746094 60.109375 81.746094 60.109375 Z M 81.742188 60.113281 "/></g><g clip-rule="nonzero" clip-path="url(#1efac8037a)"><path style=" stroke:none;fill-rule:nonzero;fill:#cdab34;fill-opacity:1;" d="M 174.960938 83.277344 C 179.414062 83.777344 183.976562 83.65625 188.335938 82.570312 C 194.535156 81.039062 200.132812 77.71875 205.039062 73.675781 C 209.539062 69.9375 213.53125 65.578125 216.953125 60.835938 C 213.542969 58.527344 209.917969 56.542969 206.191406 54.792969 C 210.394531 56.089844 214.449219 57.886719 218.246094 60.113281 L 218.792969 60.4375 C 218.792969 60.4375 218.441406 61.027344 218.441406 61.027344 C 213.882812 68.539062 207.769531 75.222656 200.316406 79.9375 C 195.953125 82.675781 191.054688 84.664062 185.929688 85.34375 C 176.371094 86.613281 166.613281 83.875 158.222656 79.386719 C 157.027344 78.75 155.867188 78.054688 154.722656 77.332031 C 154.558594 77.230469 154.394531 77.125 154.234375 77.019531 C 157.730469 78.648438 161.28125 80.066406 164.953125 81.171875 C 168.21875 82.152344 171.570312 82.890625 174.960938 83.277344 Z M 174.960938 83.277344 "/></g><path style=" stroke:none;fill-rule:nonzero;fill:#cdab34;fill-opacity:1;" d="M 122.109375 18.421875 C 120.128906 17.691406 118.125 17.019531 116.097656 16.433594 C 116.085938 16.488281 116.070312 16.542969 116.058594 16.597656 C 115.140625 20.371094 114.480469 24.214844 114.03125 28.074219 C 113.6875 31.0625 113.515625 34.058594 113.429688 37.070312 C 111.917969 30.75 112.203125 23.785156 113.472656 17.441406 C 113.726562 16.15625 114.082031 14.808594 114.421875 13.535156 C 115.695312 13.867188 117.046875 14.238281 118.289062 14.660156 C 121.191406 15.636719 124.027344 16.855469 126.71875 18.316406 C 129.8125 20 132.757812 22.003906 135.308594 24.4375 C 133.664062 23.5625 132.027344 22.699219 130.351562 21.902344 C 127.664062 20.609375 124.90625 19.453125 122.113281 18.421875 Z M 122.109375 18.421875 "/><path style=" stroke:none;fill-rule:nonzero;fill:#cdab34;fill-opacity:1;" d="M 151.609375 74.714844 C 161.445312 76.625 171.976562 76.886719 181.585938 73.703125 C 192.832031 70.085938 200.574219 60.476562 205.386719 50.058594 C 205.878906 49 206.355469 47.890625 206.792969 46.808594 C 207.53125 44.964844 208.203125 43.089844 208.777344 41.1875 C 206.453125 40.597656 204.085938 40.152344 201.714844 39.8125 C 194.382812 38.785156 186.792969 38.851562 179.625 40.839844 C 177.386719 41.472656 175.195312 42.292969 173.117188 43.34375 C 171.019531 44.390625 169.046875 45.679688 167.191406 47.117188 C 169.066406 45.328125 171.171875 43.730469 173.4375 42.449219 C 174.769531 41.683594 176.195312 41.003906 177.621094 40.429688 C 184.847656 37.550781 192.855469 36.941406 200.546875 37.644531 C 204.246094 37.984375 207.929688 38.632812 211.515625 39.609375 C 210.59375 43.339844 209.332031 46.976562 207.765625 50.484375 C 204.847656 57.003906 200.859375 63.15625 195.523438 67.964844 C 192.613281 70.589844 189.269531 72.753906 185.636719 74.242188 C 177.140625 77.726562 167.585938 77.945312 158.636719 76.394531 C 156.464844 76.011719 154.292969 75.519531 152.179688 74.898438 L 151.605469 74.722656 C 151.605469 74.722656 151.609375 74.714844 151.609375 74.714844 Z M 151.609375 74.714844 "/><g clip-rule="nonzero" clip-path="url(#c564a4493a)"><path style=" stroke:none;fill-rule:nonzero;fill:#cdab34;fill-opacity:1;" d="M 133.832031 46.484375 C 130.96875 33.890625 136.417969 21.046875 144.074219 11.203125 C 145.894531 8.855469 147.863281 6.628906 150 4.558594 C 152.21875 6.765625 154.242188 9.140625 156.105469 11.644531 C 157.804688 13.933594 159.367188 16.339844 160.730469 18.84375 C 163.453125 23.839844 165.464844 29.300781 166.105469 34.972656 C 166.191406 35.765625 166.261719 36.601562 166.285156 37.398438 C 166.324219 38.207031 166.3125 39.019531 166.285156 39.828125 C 166.191406 37.8125 165.941406 35.808594 165.519531 33.839844 C 165.152344 32.089844 164.644531 30.324219 164.050781 28.636719 C 162.925781 25.429688 161.4375 22.347656 159.710938 19.421875 C 158.191406 16.839844 156.46875 14.375 154.609375 12.027344 C 153.996094 11.246094 153.347656 10.476562 152.699219 9.722656 C 151.828125 8.71875 150.933594 7.734375 150.007812 6.792969 C 142.21875 15.050781 135.644531 25.777344 134.488281 37.210938 C 134.152344 40.644531 134.40625 44.117188 135.101562 47.496094 C 136.289062 53.195312 138.683594 58.585938 141.628906 63.589844 C 138.523438 59.199219 136.035156 54.367188 134.511719 49.191406 C 134.246094 48.3125 134.039062 47.378906 133.832031 46.484375 Z M 133.832031 46.484375 "/></g><path style=" stroke:none;fill-rule:nonzero;fill:#cdab34;fill-opacity:1;" d="M 141.628906 63.589844 C 142.65625 64.914062 143.699219 66.210938 144.78125 67.484375 C 146.425781 69.410156 148.152344 71.285156 149.96875 73.050781 C 150.097656 72.914062 150.222656 72.777344 150.339844 72.644531 C 153.414062 69.242188 156.191406 65.5625 158.605469 61.664062 C 162.675781 55.050781 165.679688 47.625 166.289062 39.828125 C 166.828125 46.746094 164.695312 53.761719 161.507812 59.839844 C 159.414062 63.820312 156.808594 67.527344 153.851562 70.910156 C 152.628906 72.308594 151.328125 73.648438 149.96875 74.917969 L 149.53125 74.453125 C 147.980469 72.820312 146.558594 71.074219 145.226562 69.257812 C 143.914062 67.449219 142.683594 65.5625 141.628906 63.589844 Z M 141.628906 63.589844 "/><path style=" stroke:none;fill-rule:nonzero;fill:#cdab34;fill-opacity:1;" d="M 114.925781 74.472656 C 105.421875 70.8125 98.390625 62.664062 93.8125 53.789062 C 93.164062 52.539062 92.539062 51.210938 91.976562 49.921875 C 90.523438 46.589844 89.351562 43.136719 88.476562 39.609375 C 92.523438 38.503906 96.691406 37.820312 100.875 37.523438 C 108.242188 37.019531 115.828125 37.746094 122.703125 40.5625 C 123.566406 40.921875 124.472656 41.339844 125.300781 41.761719 C 125.789062 42.011719 126.394531 42.351562 126.867188 42.621094 C 129.007812 43.882812 131.011719 45.402344 132.800781 47.117188 C 130.945312 45.679688 128.972656 44.390625 126.875 43.34375 C 124.800781 42.292969 122.605469 41.46875 120.367188 40.839844 C 113.425781 38.910156 106.082031 38.792969 98.96875 39.71875 C 96.363281 40.066406 93.761719 40.542969 91.214844 41.191406 C 91.558594 42.339844 91.941406 43.480469 92.351562 44.605469 C 93.96875 49.027344 96.007812 53.324219 98.550781 57.292969 C 102.113281 62.859375 106.730469 67.882812 112.53125 71.121094 C 117.679688 73.996094 123.519531 75.410156 129.367188 75.910156 C 132.527344 76.179688 135.714844 76.183594 138.886719 75.972656 C 142.066406 75.761719 145.238281 75.347656 148.386719 74.726562 L 147.808594 74.898438 C 147.617188 74.957031 147.425781 75.011719 147.230469 75.066406 C 146.070312 75.394531 144.902344 75.683594 143.722656 75.933594 C 134.25 77.941406 124.058594 78.015625 114.925781 74.476562 Z M 114.925781 74.472656 "/><g transform="matrix(1,0,0,1,4,96)"><g clip-path="url(#f900a79dcb)"><g style="fill:#ffffff;fill-opacity:1;"><g transform="translate(1.338511, 21.238191)"><path style="stroke:none" d="M 13.609375 -4.84375 C 13.535156 -4.84375 13.457031 -4.753906 13.375 -4.578125 C 13.09375 -3.921875 12.785156 -3.3125 12.453125 -2.75 C 12.117188 -2.1875 11.734375 -1.695312 11.296875 -1.28125 C 10.867188 -0.875 10.390625 -0.550781 9.859375 -0.3125 C 9.335938 -0.0820312 8.757812 0.03125 8.125 0.03125 C 6.6875 0.03125 5.613281 -0.53125 4.90625 -1.65625 C 4.207031 -2.789062 3.859375 -4.445312 3.859375 -6.625 L 3.859375 -9.296875 C 3.859375 -11.398438 4.21875 -13.019531 4.9375 -14.15625 C 5.65625 -15.289062 6.757812 -15.859375 8.25 -15.859375 C 8.875 -15.859375 9.4375 -15.757812 9.9375 -15.5625 C 10.445312 -15.363281 10.910156 -15.085938 11.328125 -14.734375 C 11.742188 -14.378906 12.101562 -13.957031 12.40625 -13.46875 C 12.707031 -12.976562 12.953125 -12.445312 13.140625 -11.875 C 13.179688 -11.71875 13.238281 -11.640625 13.3125 -11.640625 C 13.382812 -11.640625 13.421875 -11.734375 13.421875 -11.921875 L 13.421875 -15.8125 C 13.421875 -15.945312 13.40625 -16.039062 13.375 -16.09375 C 13.34375 -16.144531 13.296875 -16.171875 13.234375 -16.171875 C 13.148438 -16.171875 13.046875 -16.101562 12.921875 -15.96875 L 12 -15.015625 C 11.488281 -15.429688 10.914062 -15.742188 10.28125 -15.953125 C 9.644531 -16.171875 8.96875 -16.28125 8.25 -16.28125 C 7.195312 -16.28125 6.222656 -16.039062 5.328125 -15.5625 C 4.429688 -15.09375 3.648438 -14.46875 2.984375 -13.6875 C 2.328125 -12.90625 1.816406 -12.015625 1.453125 -11.015625 C 1.085938 -10.023438 0.90625 -9.023438 0.90625 -8.015625 C 0.90625 -6.835938 1.113281 -5.734375 1.53125 -4.703125 C 1.957031 -3.679688 2.507812 -2.785156 3.1875 -2.015625 C 3.875 -1.253906 4.644531 -0.648438 5.5 -0.203125 C 6.363281 0.234375 7.238281 0.453125 8.125 0.453125 C 8.875 0.453125 9.585938 0.304688 10.265625 0.015625 C 10.953125 -0.273438 11.566406 -0.722656 12.109375 -1.328125 L 13.375 0.046875 C 13.457031 0.128906 13.53125 0.171875 13.59375 0.171875 C 13.6875 0.171875 13.734375 0.113281 13.734375 0 L 13.734375 -4.609375 C 13.734375 -4.765625 13.691406 -4.84375 13.609375 -4.84375 Z M 13.609375 -4.84375 "/></g></g><g style="fill:#ffffff;fill-opacity:1;"><g transform="translate(21.751898, 21.238191)"><path style="stroke:none" d="M 0.53125 -0.375 L 0.53125 0 L 5.8125 0 L 5.8125 -0.375 L 3 -0.375 L 4.5 -4.984375 L 9.296875 -4.984375 L 10.84375 -0.375 L 8.390625 -0.375 L 8.390625 0 L 15.375 0 L 15.375 -0.375 L 13.3125 -0.375 L 8.078125 -16.234375 L 7.796875 -16.234375 L 2.578125 -0.375 Z M 6.890625 -12.1875 L 9.1875 -5.359375 L 4.65625 -5.359375 Z M 6.890625 -12.1875 "/></g></g><g style="fill:#ffffff;fill-opacity:1;"><g transform="translate(43.309865, 21.238191)"><path style="stroke:none" d="M 12.59375 -1.03125 C 12.539062 -1.1875 12.503906 -1.40625 12.484375 -1.6875 C 12.460938 -1.976562 12.445312 -2.289062 12.4375 -2.625 C 12.425781 -2.957031 12.414062 -3.296875 12.40625 -3.640625 C 12.40625 -3.992188 12.378906 -4.332031 12.328125 -4.65625 C 12.234375 -5.289062 12.070312 -5.8125 11.84375 -6.21875 C 11.625 -6.632812 11.351562 -6.972656 11.03125 -7.234375 C 10.71875 -7.492188 10.351562 -7.695312 9.9375 -7.84375 C 9.53125 -8 9.085938 -8.144531 8.609375 -8.28125 C 9.847656 -8.5 10.800781 -8.9375 11.46875 -9.59375 C 12.132812 -10.257812 12.46875 -11.09375 12.46875 -12.09375 C 12.46875 -12.707031 12.335938 -13.257812 12.078125 -13.75 C 11.816406 -14.25 11.460938 -14.664062 11.015625 -15 C 10.566406 -15.332031 10.035156 -15.582031 9.421875 -15.75 C 8.816406 -15.925781 8.171875 -16.015625 7.484375 -16.015625 L 0.765625 -16.015625 L 0.765625 -15.640625 L 2.8125 -15.640625 L 2.8125 -0.375 L 0.765625 -0.375 L 0.765625 0 L 7.171875 0 L 7.171875 -0.375 L 5.125 -0.375 L 5.125 -8.171875 L 7.109375 -8.171875 C 7.359375 -8.171875 7.625 -8.128906 7.90625 -8.046875 C 8.195312 -7.960938 8.460938 -7.796875 8.703125 -7.546875 C 8.953125 -7.296875 9.171875 -6.953125 9.359375 -6.515625 C 9.546875 -6.078125 9.675781 -5.519531 9.75 -4.84375 C 9.800781 -4.425781 9.828125 -4.003906 9.828125 -3.578125 C 9.835938 -3.148438 9.863281 -2.734375 9.90625 -2.328125 C 9.945312 -1.929688 10.019531 -1.566406 10.125 -1.234375 C 10.226562 -0.898438 10.390625 -0.613281 10.609375 -0.375 C 10.816406 -0.15625 11.054688 -0.0078125 11.328125 0.0625 C 11.609375 0.144531 11.910156 0.1875 12.234375 0.1875 C 12.503906 0.1875 12.773438 0.160156 13.046875 0.109375 C 13.316406 0.0546875 13.566406 -0.0078125 13.796875 -0.09375 C 14.023438 -0.175781 14.222656 -0.257812 14.390625 -0.34375 C 14.554688 -0.4375 14.679688 -0.519531 14.765625 -0.59375 C 14.804688 -0.644531 14.828125 -0.691406 14.828125 -0.734375 C 14.828125 -0.785156 14.804688 -0.8125 14.765625 -0.8125 C 14.734375 -0.8125 14.679688 -0.796875 14.609375 -0.765625 C 14.296875 -0.535156 13.941406 -0.421875 13.546875 -0.421875 C 13.046875 -0.421875 12.726562 -0.625 12.59375 -1.03125 Z M 5.125 -8.5625 L 5.125 -15.640625 L 7.484375 -15.640625 C 9.296875 -15.640625 10.203125 -14.597656 10.203125 -12.515625 L 10.203125 -11.65625 C 10.203125 -9.59375 9.296875 -8.5625 7.484375 -8.5625 Z M 5.125 -8.5625 "/></g></g><g style="fill:#ffffff;fill-opacity:1;"><g transform="translate(64.080929, 21.238191)"><path style="stroke:none" d="M 7.4375 -15.640625 L 7.4375 -16.015625 L 1.03125 -16.015625 L 1.03125 -15.640625 L 3.078125 -15.640625 L 3.078125 -0.375 L 1.03125 -0.375 L 1.03125 0 L 7.4375 0 L 7.4375 -0.375 L 5.390625 -0.375 L 5.390625 -15.640625 Z M 7.4375 -15.640625 "/></g></g><g style="fill:#ffffff;fill-opacity:1;"><g transform="translate(78.342181, 21.238191)"><path style="stroke:none" d="M 12.515625 -12.296875 C 12.515625 -12.890625 12.378906 -13.421875 12.109375 -13.890625 C 11.835938 -14.359375 11.472656 -14.742188 11.015625 -15.046875 C 10.566406 -15.359375 10.046875 -15.597656 9.453125 -15.765625 C 8.867188 -15.929688 8.257812 -16.015625 7.625 -16.015625 L 0.6875 -16.015625 L 0.6875 -15.640625 L 2.734375 -15.640625 L 2.734375 -0.375 L 0.6875 -0.375 L 0.6875 0 L 7.828125 0 C 9.472656 0 10.753906 -0.378906 11.671875 -1.140625 C 12.585938 -1.898438 13.046875 -2.957031 13.046875 -4.3125 C 13.046875 -5.007812 12.90625 -5.617188 12.625 -6.140625 C 12.34375 -6.671875 11.992188 -7.117188 11.578125 -7.484375 C 11.171875 -7.847656 10.71875 -8.128906 10.21875 -8.328125 C 9.71875 -8.523438 9.253906 -8.648438 8.828125 -8.703125 C 9.347656 -8.796875 9.832031 -8.929688 10.28125 -9.109375 C 10.738281 -9.296875 11.128906 -9.535156 11.453125 -9.828125 C 11.785156 -10.128906 12.046875 -10.484375 12.234375 -10.890625 C 12.421875 -11.296875 12.515625 -11.765625 12.515625 -12.296875 Z M 5.0625 -8.84375 L 5.0625 -15.640625 L 7.625 -15.640625 C 8.019531 -15.640625 8.378906 -15.585938 8.703125 -15.484375 C 9.023438 -15.378906 9.296875 -15.203125 9.515625 -14.953125 C 9.734375 -14.710938 9.90625 -14.390625 10.03125 -13.984375 C 10.164062 -13.578125 10.234375 -13.082031 10.234375 -12.5 L 10.234375 -12.109375 C 10.234375 -11.472656 10.164062 -10.941406 10.03125 -10.515625 C 9.90625 -10.097656 9.734375 -9.765625 9.515625 -9.515625 C 9.296875 -9.273438 9.019531 -9.101562 8.6875 -9 C 8.363281 -8.894531 8.007812 -8.84375 7.625 -8.84375 Z M 5.0625 -0.375 L 5.0625 -8.46875 L 7.625 -8.46875 C 8.726562 -8.46875 9.515625 -8.132812 9.984375 -7.46875 C 10.453125 -6.800781 10.6875 -5.847656 10.6875 -4.609375 L 10.6875 -4.03125 C 10.6875 -2.863281 10.460938 -1.960938 10.015625 -1.328125 C 9.566406 -0.691406 8.769531 -0.375 7.625 -0.375 Z M 5.0625 -0.375 "/></g></g><g style="fill:#ffffff;fill-opacity:1;"><g transform="translate(98.397881, 21.238191)"><path style="stroke:none" d="M 12.515625 -12.296875 C 12.515625 -12.890625 12.378906 -13.421875 12.109375 -13.890625 C 11.835938 -14.359375 11.472656 -14.742188 11.015625 -15.046875 C 10.566406 -15.359375 10.046875 -15.597656 9.453125 -15.765625 C 8.867188 -15.929688 8.257812 -16.015625 7.625 -16.015625 L 0.6875 -16.015625 L 0.6875 -15.640625 L 2.734375 -15.640625 L 2.734375 -0.375 L 0.6875 -0.375 L 0.6875 0 L 7.828125 0 C 9.472656 0 10.753906 -0.378906 11.671875 -1.140625 C 12.585938 -1.898438 13.046875 -2.957031 13.046875 -4.3125 C 13.046875 -5.007812 12.90625 -5.617188 12.625 -6.140625 C 12.34375 -6.671875 11.992188 -7.117188 11.578125 -7.484375 C 11.171875 -7.847656 10.71875 -8.128906 10.21875 -8.328125 C 9.71875 -8.523438 9.253906 -8.648438 8.828125 -8.703125 C 9.347656 -8.796875 9.832031 -8.929688 10.28125 -9.109375 C 10.738281 -9.296875 11.128906 -9.535156 11.453125 -9.828125 C 11.785156 -10.128906 12.046875 -10.484375 12.234375 -10.890625 C 12.421875 -11.296875 12.515625 -11.765625 12.515625 -12.296875 Z M 5.0625 -8.84375 L 5.0625 -15.640625 L 7.625 -15.640625 C 8.019531 -15.640625 8.378906 -15.585938 8.703125 -15.484375 C 9.023438 -15.378906 9.296875 -15.203125 9.515625 -14.953125 C 9.734375 -14.710938 9.90625 -14.390625 10.03125 -13.984375 C 10.164062 -13.578125 10.234375 -13.082031 10.234375 -12.5 L 10.234375 -12.109375 C 10.234375 -11.472656 10.164062 -10.941406 10.03125 -10.515625 C 9.90625 -10.097656 9.734375 -9.765625 9.515625 -9.515625 C 9.296875 -9.273438 9.019531 -9.101562 8.6875 -9 C 8.363281 -8.894531 8.007812 -8.84375 7.625 -8.84375 Z M 5.0625 -0.375 L 5.0625 -8.46875 L 7.625 -8.46875 C 8.726562 -8.46875 9.515625 -8.132812 9.984375 -7.46875 C 10.453125 -6.800781 10.6875 -5.847656 10.6875 -4.609375 L 10.6875 -4.03125 C 10.6875 -2.863281 10.460938 -1.960938 10.015625 -1.328125 C 9.566406 -0.691406 8.769531 -0.375 7.625 -0.375 Z M 5.0625 -0.375 "/></g></g><g style="fill:#ffffff;fill-opacity:1;"><g transform="translate(118.453581, 21.238191)"><path style="stroke:none" d="M 5.15625 -8.25 L 7.03125 -8.25 C 7.382812 -8.25 7.660156 -8.195312 7.859375 -8.09375 C 8.066406 -7.988281 8.226562 -7.84375 8.34375 -7.65625 C 8.46875 -7.46875 8.5625 -7.238281 8.625 -6.96875 C 8.695312 -6.695312 8.765625 -6.394531 8.828125 -6.0625 C 8.867188 -5.832031 8.929688 -5.71875 9.015625 -5.71875 C 9.109375 -5.71875 9.15625 -5.820312 9.15625 -6.03125 L 9.15625 -10.875 C 9.15625 -11.0625 9.109375 -11.15625 9.015625 -11.15625 C 8.929688 -11.15625 8.867188 -11.046875 8.828125 -10.828125 C 8.765625 -10.492188 8.695312 -10.191406 8.625 -9.921875 C 8.5625 -9.648438 8.46875 -9.414062 8.34375 -9.21875 C 8.226562 -9.03125 8.066406 -8.882812 7.859375 -8.78125 C 7.660156 -8.675781 7.382812 -8.625 7.03125 -8.625 L 5.15625 -8.625 L 5.15625 -15.640625 L 8.78125 -15.640625 C 9.3125 -15.640625 9.757812 -15.507812 10.125 -15.25 C 10.5 -14.988281 10.796875 -14.660156 11.015625 -14.265625 C 11.234375 -13.878906 11.394531 -13.46875 11.5 -13.03125 C 11.601562 -12.59375 11.664062 -12.195312 11.6875 -11.84375 C 11.6875 -11.625 11.75 -11.515625 11.875 -11.515625 C 11.988281 -11.515625 12.046875 -11.617188 12.046875 -11.828125 L 12.046875 -15.453125 C 12.046875 -15.828125 11.84375 -16.015625 11.4375 -16.015625 L 0.78125 -16.015625 L 0.78125 -15.640625 L 2.84375 -15.640625 L 2.84375 -0.375 L 0.8125 -0.375 L 0.8125 0 L 12.015625 0 C 12.472656 0 12.703125 -0.253906 12.703125 -0.765625 L 12.703125 -4.34375 C 12.703125 -4.71875 12.640625 -4.90625 12.515625 -4.90625 C 12.398438 -4.90625 12.3125 -4.738281 12.25 -4.40625 C 12.125 -3.800781 11.988281 -3.253906 11.84375 -2.765625 C 11.707031 -2.273438 11.519531 -1.847656 11.28125 -1.484375 C 11.039062 -1.128906 10.738281 -0.851562 10.375 -0.65625 C 10.007812 -0.46875 9.546875 -0.375 8.984375 -0.375 L 5.15625 -0.375 Z M 5.15625 -8.25 "/></g></g><g style="fill:#ffffff;fill-opacity:1;"><g transform="translate(137.936997, 21.238191)"><path style="stroke:none" d="M 0.53125 -0.375 L 0.53125 0 L 5.8125 0 L 5.8125 -0.375 L 3 -0.375 L 4.5 -4.984375 L 9.296875 -4.984375 L 10.84375 -0.375 L 8.390625 -0.375 L 8.390625 0 L 15.375 0 L 15.375 -0.375 L 13.3125 -0.375 L 8.078125 -16.234375 L 7.796875 -16.234375 L 2.578125 -0.375 Z M 6.890625 -12.1875 L 9.1875 -5.359375 L 4.65625 -5.359375 Z M 6.890625 -12.1875 "/></g></g><g style="fill:#ffffff;fill-opacity:1;"><g transform="translate(159.494964, 21.238191)"><path style="stroke:none" d="M 0.640625 -0.375 L 0.640625 0 L 5.125 0 L 5.125 -0.375 L 3.078125 -0.375 L 3.078125 -14.953125 L 12.296875 0.1875 L 13.109375 0.1875 L 13.109375 -15.640625 L 15.171875 -15.640625 L 15.171875 -16.015625 L 10.6875 -16.015625 L 10.6875 -15.640625 L 12.734375 -15.640625 L 12.734375 -3.9375 L 5.34375 -16.015625 L 0.640625 -16.015625 L 0.640625 -15.640625 L 2.6875 -15.640625 L 2.6875 -0.375 Z M 0.640625 -0.375 "/></g></g><g style="fill:#ffffff;fill-opacity:1;"><g transform="translate(180.964092, 21.238191)"><path style="stroke:none" d=""/></g></g><g style="fill:#ffffff;fill-opacity:1;"><g transform="translate(193.174637, 21.238191)"><path style="stroke:none" d=""/></g></g><g style="fill:#ffffff;fill-opacity:1;"><g transform="translate(205.385183, 21.238191)"><path style="stroke:none" d=""/></g></g><g style="fill:#ffffff;fill-opacity:1;"><g transform="translate(217.603066, 21.238191)"><path style="stroke:none" d="M 12.515625 -12.296875 C 12.515625 -12.890625 12.378906 -13.421875 12.109375 -13.890625 C 11.835938 -14.359375 11.472656 -14.742188 11.015625 -15.046875 C 10.566406 -15.359375 10.046875 -15.597656 9.453125 -15.765625 C 8.867188 -15.929688 8.257812 -16.015625 7.625 -16.015625 L 0.6875 -16.015625 L 0.6875 -15.640625 L 2.734375 -15.640625 L 2.734375 -0.375 L 0.6875 -0.375 L 0.6875 0 L 7.828125 0 C 9.472656 0 10.753906 -0.378906 11.671875 -1.140625 C 12.585938 -1.898438 13.046875 -2.957031 13.046875 -4.3125 C 13.046875 -5.007812 12.90625 -5.617188 12.625 -6.140625 C 12.34375 -6.671875 11.992188 -7.117188 11.578125 -7.484375 C 11.171875 -7.847656 10.71875 -8.128906 10.21875 -8.328125 C 9.71875 -8.523438 9.253906 -8.648438 8.828125 -8.703125 C 9.347656 -8.796875 9.832031 -8.929688 10.28125 -9.109375 C 10.738281 -9.296875 11.128906 -9.535156 11.453125 -9.828125 C 11.785156 -10.128906 12.046875 -10.484375 12.234375 -10.890625 C 12.421875 -11.296875 12.515625 -11.765625 12.515625 -12.296875 Z M 5.0625 -8.84375 L 5.0625 -15.640625 L 7.625 -15.640625 C 8.019531 -15.640625 8.378906 -15.585938 8.703125 -15.484375 C 9.023438 -15.378906 9.296875 -15.203125 9.515625 -14.953125 C 9.734375 -14.710938 9.90625 -14.390625 10.03125 -13.984375 C 10.164062 -13.578125 10.234375 -13.082031 10.234375 -12.5 L 10.234375 -12.109375 C 10.234375 -11.472656 10.164062 -10.941406 10.03125 -10.515625 C 9.90625 -10.097656 9.734375 -9.765625 9.515625 -9.515625 C 9.296875 -9.273438 9.019531 -9.101562 8.6875 -9 C 8.363281 -8.894531 8.007812 -8.84375 7.625 -8.84375 Z M 5.0625 -0.375 L 5.0625 -8.46875 L 7.625 -8.46875 C 8.726562 -8.46875 9.515625 -8.132812 9.984375 -7.46875 C 10.453125 -6.800781 10.6875 -5.847656 10.6875 -4.609375 L 10.6875 -4.03125 C 10.6875 -2.863281 10.460938 -1.960938 10.015625 -1.328125 C 9.566406 -0.691406 8.769531 -0.375 7.625 -0.375 Z M 5.0625 -0.375 "/></g></g><g style="fill:#ffffff;fill-opacity:1;"><g transform="translate(237.664194, 21.238191)"><path style="stroke:none" d=""/></g></g><g style="fill:#ffffff;fill-opacity:1;"><g transform="translate(249.874739, 21.238191)"><path style="stroke:none" d=""/></g></g><g style="fill:#ffffff;fill-opacity:1;"><g transform="translate(262.090176, 21.238191)"><path style="stroke:none" d="M 13.234375 -4.40625 C 13.109375 -3.800781 12.972656 -3.253906 12.828125 -2.765625 C 12.679688 -2.273438 12.488281 -1.847656 12.25 -1.484375 C 12.007812 -1.128906 11.707031 -0.851562 11.34375 -0.65625 C 10.976562 -0.46875 10.519531 -0.375 9.96875 -0.375 L 5.078125 -0.375 L 5.078125 -15.640625 L 7.34375 -15.640625 L 7.34375 -16.015625 L 0.71875 -16.015625 L 0.71875 -15.640625 L 2.765625 -15.640625 L 2.765625 -0.375 L 0.71875 -0.375 L 0.71875 0 L 13 0 C 13.457031 0 13.6875 -0.253906 13.6875 -0.765625 L 13.6875 -4.34375 C 13.6875 -4.71875 13.625 -4.90625 13.5 -4.90625 C 13.382812 -4.90625 13.296875 -4.738281 13.234375 -4.40625 Z M 13.234375 -4.40625 "/></g></g><g style="fill:#ffffff;fill-opacity:1;"><g transform="translate(282.169719, 21.238191)"><path style="stroke:none" d="M 7.4375 -15.640625 L 7.4375 -16.015625 L 1.03125 -16.015625 L 1.03125 -15.640625 L 3.078125 -15.640625 L 3.078125 -0.375 L 1.03125 -0.375 L 1.03125 0 L 7.4375 0 L 7.4375 -0.375 L 5.390625 -0.375 L 5.390625 -15.640625 Z M 7.4375 -15.640625 "/></g></g></g></g><g clip-rule="nonzero" clip-path="url(#1f2fd709a8)"><path style=" stroke:none;fill-rule:evenodd;fill:#ffffff;fill-opacity:1;" d="M 250.742188 101.175781 L 250.496094 101.472656 L 250.078125 102.625 L 249.941406 103.910156 L 249.710938 103.269531 L 249.34375 103.910156 L 249.757812 104.558594 L 249.527344 105.019531 L 249.113281 104.234375 L 249.019531 105.066406 L 249.480469 105.574219 L 249.296875 106.125 L 248.695312 105.476562 L 248.742188 106.167969 L 249.25 106.769531 L 249.25 107.414062 L 248.882812 107.183594 L 248.28125 106.722656 L 248.464844 107.550781 L 249.066406 108.0625 L 249.113281 108.707031 L 248.558594 108.613281 L 247.820312 108.152344 L 248.191406 109.304688 L 248.882812 109.535156 L 248.925781 110.039062 L 248.328125 110.089844 L 248.28125 111.46875 L 248.695312 111.515625 L 248.605469 115.386719 L 247.914062 115.386719 L 247.914062 116.167969 L 248.234375 116.214844 L 248.234375 116.628906 L 248.652344 116.628906 L 248.652344 117.230469 L 248.050781 117.230469 L 248.050781 117.964844 L 253.441406 118.011719 L 253.441406 117.273438 L 252.84375 117.273438 L 252.84375 116.675781 L 253.257812 116.675781 L 253.257812 116.261719 L 253.578125 116.214844 L 253.578125 115.429688 L 252.886719 115.429688 L 252.796875 111.5625 L 253.210938 111.515625 L 253.167969 110.132812 L 252.566406 110.089844 L 252.613281 109.578125 L 253.304688 109.347656 L 253.671875 108.195312 L 252.9375 108.65625 L 252.382812 108.75 L 252.429688 108.105469 L 253.027344 107.601562 L 253.210938 106.769531 L 252.613281 107.230469 L 252.246094 107.460938 L 252.246094 106.816406 L 252.753906 106.21875 L 252.796875 105.527344 L 252.199219 106.167969 L 252.015625 105.617188 L 252.476562 105.113281 L 252.382812 104.28125 L 251.96875 105.066406 L 251.738281 104.605469 L 252.152344 103.960938 L 251.785156 103.3125 L 251.554688 103.960938 L 251.414062 102.667969 L 250.902344 101.359375 Z M 250.039062 104.9375 L 251.261719 104.9375 L 251.261719 105.097656 L 250.039062 105.097656 Z M 251.480469 105.917969 L 251.480469 106.078125 L 249.855469 106.117188 L 249.855469 105.960938 Z M 251.683594 107.101562 L 251.742188 107.300781 L 249.777344 107.320312 L 249.757812 107.140625 Z M 249.617188 108.285156 L 251.882812 108.304688 L 251.902344 108.484375 L 249.597656 108.464844 Z M 252.082031 109.566406 L 252.125 109.785156 L 249.296875 109.828125 L 249.277344 109.667969 Z M 250.21875 112.253906 L 251.101562 112.292969 L 251.582031 112.914062 L 251.625 116.542969 L 249.757812 116.523438 L 249.617188 112.996094 Z M 250.21875 112.253906 "/></g><g clip-rule="nonzero" clip-path="url(#60f116d570)"><path style=" stroke:none;fill-rule:evenodd;fill:#ffffff;fill-opacity:1;" d="M 243.570312 118.15625 L 243.523438 117.464844 L 244.261719 117.003906 L 244.398438 115.667969 C 244.398438 115.667969 243.195312 114.808594 243.015625 114.238281 C 242.855469 113.734375 243.292969 112.488281 243.292969 112.488281 C 243.292969 112.488281 243.410156 113.378906 243.660156 113.640625 C 243.886719 113.875 244.675781 114.007812 244.675781 114.007812 C 244.675781 114.007812 244.0625 113.253906 243.984375 112.859375 C 243.890625 112.390625 244.214844 111.289062 244.214844 111.289062 C 244.214844 111.289062 244.511719 112.222656 244.8125 112.488281 C 244.96875 112.625 245.457031 112.71875 245.457031 112.71875 L 245.503906 112.121094 C 245.503906 112.121094 244.964844 111.691406 244.859375 111.429688 C 244.710938 111.054688 244.859375 110.09375 244.859375 110.09375 C 244.859375 110.09375 245.125 110.835938 245.367188 111.058594 C 245.464844 111.152344 245.78125 111.246094 245.78125 111.246094 L 246.011719 110.460938 C 246.011719 110.460938 245.625 110.179688 245.550781 110 C 245.429688 109.707031 245.550781 108.941406 245.550781 108.941406 C 245.550781 108.941406 245.753906 109.632812 246.011719 109.722656 C 246.191406 109.789062 246.609375 109.492188 246.609375 109.492188 C 246.609375 109.492188 246.148438 109.089844 246.101562 108.847656 C 246.050781 108.566406 246.378906 107.925781 246.378906 107.925781 L 246.933594 108.894531 L 246.933594 108.25 L 246.65625 107.652344 L 247.578125 106.820312 L 247.625 118.15625 Z M 243.570312 118.15625 "/></g><g clip-rule="nonzero" clip-path="url(#2610669078)"><path style=" stroke:none;fill-rule:evenodd;fill:#ffffff;fill-opacity:1;" d="M 258.058594 118.054688 L 258.105469 117.363281 L 257.367188 116.902344 L 257.230469 115.566406 C 257.230469 115.566406 258.433594 114.707031 258.613281 114.140625 C 258.773438 113.632812 258.335938 112.390625 258.335938 112.390625 C 258.335938 112.390625 258.21875 113.277344 257.96875 113.539062 C 257.742188 113.773438 256.953125 113.910156 256.953125 113.910156 C 256.953125 113.910156 257.566406 113.152344 257.644531 112.757812 C 257.738281 112.292969 257.414062 111.191406 257.414062 111.191406 C 257.414062 111.191406 257.117188 112.121094 256.816406 112.390625 C 256.660156 112.523438 256.171875 112.621094 256.171875 112.621094 L 256.125 112.019531 C 256.125 112.019531 256.664062 111.59375 256.769531 111.328125 C 256.917969 110.957031 256.769531 109.992188 256.769531 109.992188 C 256.769531 109.992188 256.5 110.734375 256.261719 110.960938 C 256.164062 111.054688 255.847656 111.144531 255.847656 111.144531 L 255.617188 110.363281 C 255.617188 110.363281 256.003906 110.082031 256.078125 109.902344 C 256.199219 109.605469 256.078125 108.839844 256.078125 108.839844 C 256.078125 108.839844 255.875 109.535156 255.617188 109.625 C 255.4375 109.6875 255.019531 109.394531 255.019531 109.394531 C 255.019531 109.394531 255.480469 108.992188 255.527344 108.75 C 255.578125 108.464844 255.25 107.828125 255.25 107.828125 L 254.695312 108.792969 L 254.695312 108.148438 L 254.972656 107.550781 L 254.050781 106.722656 L 254.003906 118.054688 Z M 258.058594 118.054688 "/></g><g clip-rule="nonzero" clip-path="url(#c978b0256f)"><path style=" stroke:none;fill-rule:evenodd;fill:#ffffff;fill-opacity:1;" d="M 242.484375 118.085938 L 243.324219 118.066406 L 243.246094 117.503906 L 243.90625 116.84375 L 243.925781 116.023438 L 242.160156 115.980469 L 242.160156 118.125 Z M 242.484375 118.085938 "/></g><g clip-rule="nonzero" clip-path="url(#19a252955c)"><path style=" stroke:none;fill-rule:evenodd;fill:#ffffff;fill-opacity:1;" d="M 259.179688 118.027344 L 258.335938 118.007812 L 258.417969 117.445312 L 257.757812 116.785156 L 257.734375 115.960938 L 259.5 115.921875 L 259.5 118.066406 Z M 259.179688 118.027344 "/></g><g transform="matrix(1,0,0,1,126,131)"><g clip-path="url(#3939ade07b)"><g clip-rule="nonzero" clip-path="url(#620725136a)"><g style="fill:#cdab34;fill-opacity:1;"><g transform="translate(0.82558, 12.142603)"><path style="stroke:none" d="M 4.8125 -6.203125 L 6.046875 -6.203125 L 4 0 L 2.125 0 L 0.078125 -6.203125 L 1.296875 -6.203125 L 3.046875 -0.46875 Z M 4.8125 -6.203125 "/></g></g></g><g style="fill:#cdab34;fill-opacity:1;"><g transform="translate(9.621683, 12.142603)"><path style="stroke:none" d="M 3.421875 -0.953125 L 3.421875 0 L 0.65625 0 L 0.65625 -0.953125 L 1.5 -0.953125 L 1.5 -5.234375 L 0.65625 -5.234375 L 0.65625 -6.203125 L 3.421875 -6.203125 L 3.421875 -5.234375 L 2.609375 -5.234375 L 2.609375 -0.953125 Z M 3.421875 -0.953125 "/></g></g><g style="fill:#cdab34;fill-opacity:1;"><g transform="translate(16.458209, 12.142603)"><path style="stroke:none" d="M 0.6875 0 L 0.6875 -6.203125 L 1.8125 -6.203125 L 1.8125 -0.953125 L 4.875 -0.953125 L 4.875 0 Z M 0.6875 0 "/></g></g><g style="fill:#cdab34;fill-opacity:1;"><g transform="translate(24.307553, 12.142603)"><path style="stroke:none" d="M 0.6875 0 L 0.6875 -6.203125 L 1.8125 -6.203125 L 1.8125 -0.953125 L 4.875 -0.953125 L 4.875 0 Z M 0.6875 0 "/></g></g><g style="fill:#cdab34;fill-opacity:1;"><g transform="translate(32.156898, 12.142603)"><path style="stroke:none" d="M 0.203125 0 L 2.1875 -6.203125 L 4.03125 -6.203125 L 6.0625 0 L 4.875 0 L 4.34375 -1.75 L 1.921875 -1.75 L 1.40625 0 Z M 3.125 -5.734375 L 2.1875 -2.625 L 4.078125 -2.625 Z M 3.125 -5.734375 "/></g></g><g style="fill:#cdab34;fill-opacity:1;"><g transform="translate(41.063093, 12.142603)"><path style="stroke:none" d="M 3.046875 0.125 C 2.703125 0.125 2.363281 0.0820312 2.03125 0 C 1.707031 -0.0820312 1.414062 -0.207031 1.15625 -0.375 C 0.894531 -0.539062 0.6875 -0.757812 0.53125 -1.03125 C 0.375 -1.3125 0.289062 -1.644531 0.28125 -2.03125 L 1.421875 -2.03125 C 1.421875 -2 1.4375 -1.921875 1.46875 -1.796875 C 1.5 -1.679688 1.566406 -1.550781 1.671875 -1.40625 C 1.773438 -1.269531 1.941406 -1.148438 2.171875 -1.046875 C 2.398438 -0.941406 2.71875 -0.890625 3.125 -0.890625 C 3.550781 -0.890625 3.867188 -0.96875 4.078125 -1.125 C 4.285156 -1.289062 4.390625 -1.46875 4.390625 -1.65625 C 4.390625 -1.851562 4.316406 -2.015625 4.171875 -2.140625 C 4.035156 -2.265625 3.847656 -2.363281 3.609375 -2.4375 C 3.367188 -2.519531 3.109375 -2.59375 2.828125 -2.65625 C 2.546875 -2.71875 2.257812 -2.789062 1.96875 -2.875 C 1.6875 -2.957031 1.429688 -3.070312 1.203125 -3.21875 C 0.972656 -3.363281 0.789062 -3.550781 0.65625 -3.78125 C 0.53125 -4.007812 0.472656 -4.300781 0.484375 -4.65625 C 0.523438 -5.175781 0.773438 -5.582031 1.234375 -5.875 C 1.691406 -6.164062 2.304688 -6.3125 3.078125 -6.3125 C 3.515625 -6.3125 3.921875 -6.234375 4.296875 -6.078125 C 4.679688 -5.921875 4.988281 -5.6875 5.21875 -5.375 C 5.445312 -5.0625 5.5625 -4.660156 5.5625 -4.171875 L 4.46875 -4.171875 C 4.46875 -4.398438 4.414062 -4.585938 4.3125 -4.734375 C 4.207031 -4.878906 4.078125 -4.988281 3.921875 -5.0625 C 3.765625 -5.132812 3.597656 -5.179688 3.421875 -5.203125 C 3.242188 -5.234375 3.085938 -5.25 2.953125 -5.25 C 2.585938 -5.25 2.285156 -5.1875 2.046875 -5.0625 C 1.804688 -4.9375 1.6875 -4.753906 1.6875 -4.515625 C 1.675781 -4.304688 1.742188 -4.140625 1.890625 -4.015625 C 2.035156 -3.890625 2.226562 -3.789062 2.46875 -3.71875 C 2.71875 -3.644531 2.984375 -3.578125 3.265625 -3.515625 C 3.554688 -3.460938 3.84375 -3.394531 4.125 -3.3125 C 4.414062 -3.226562 4.675781 -3.117188 4.90625 -2.984375 C 5.144531 -2.847656 5.328125 -2.660156 5.453125 -2.421875 C 5.585938 -2.191406 5.644531 -1.894531 5.625 -1.53125 C 5.59375 -1.007812 5.335938 -0.601562 4.859375 -0.3125 C 4.390625 -0.0195312 3.785156 0.125 3.046875 0.125 Z M 3.046875 0.125 "/></g></g></g></g><path style="fill:none;stroke-width:1;stroke-linecap:butt;stroke-linejoin:miter;stroke:#cdab34;stroke-opacity:1;stroke-miterlimit:4;" d="M 0.00159754 0.500321 L 146.782856 0.500321 " transform="matrix(0.75,0,0,0.75,177.522239,140.015384)"/><path style="fill:none;stroke-width:1;stroke-linecap:butt;stroke-linejoin:miter;stroke:#cdab34;stroke-opacity:1;stroke-miterlimit:4;" d="M 0.00240568 0.499944 L 146.783664 0.499944 " transform="matrix(0.75,0,0,0.75,12.388821,140.359417)"/><g transform="matrix(1,0,0,1,199,96)"><g clip-path="url(#b90d72f87e)"><g style="fill:#cdab34;fill-opacity:1;"><g transform="translate(0.45332, 21.238191)"><path style="stroke:none" d="M 1.09375 -16.671875 L 1.09375 1.21875 L 1.734375 1.21875 L 1.734375 -16.671875 Z M 1.09375 -16.671875 "/></g></g></g></g></g></svg>