<svg xmlns="http://www.w3.org/2000/svg" xmlns:xlink="http://www.w3.org/1999/xlink" width="400" zoomAndPan="magnify" viewBox="0 0 300 37.5" height="50" preserveAspectRatio="xMidYMid meet" version="1.2"><defs><clipPath id="17bcebf705"><path d="M 6 5 L 298.023438 5 L 298.023438 31 L 6 31 Z M 6 5 "/></clipPath><clipPath id="978d1f42c2"><rect x="0" width="293" y="0" height="26"/></clipPath><clipPath id="2b88f41256"><path d="M 246 10.121094 L 253 10.121094 L 253 27 L 246 27 Z M 246 10.121094 "/></clipPath><clipPath id="84e88a8ee6"><path d="M 241.324219 24 L 244 24 L 244 27 L 241.324219 27 Z M 241.324219 24 "/></clipPath><clipPath id="81ef30f35b"><path d="M 256 24 L 258.34375 24 L 258.34375 27 L 256 27 Z M 256 24 "/></clipPath><clipPath id="1e7af56157"><rect x="0" width="10" y="0" height="26"/></clipPath></defs><g id="77c5e668f3"><g clip-rule="nonzero" clip-path="url(#17bcebf705)"><g transform="matrix(1,0,0,1,6,5)"><g clip-path="url(#978d1f42c2)"><g style="fill:#ffffff;fill-opacity:1;"><g transform="translate(1.241949, 20.972316)"><path style="stroke:none" d="M 13.4375 -4.78125 C 13.351562 -4.78125 13.273438 -4.691406 13.203125 -4.515625 C 12.921875 -3.867188 12.613281 -3.265625 12.28125 -2.703125 C 11.957031 -2.148438 11.582031 -1.671875 11.15625 -1.265625 C 10.726562 -0.859375 10.253906 -0.539062 9.734375 -0.3125 C 9.222656 -0.0820312 8.65625 0.03125 8.03125 0.03125 C 6.59375 0.03125 5.53125 -0.523438 4.84375 -1.640625 C 4.15625 -2.753906 3.8125 -4.390625 3.8125 -6.546875 L 3.8125 -9.171875 C 3.8125 -11.242188 4.164062 -12.835938 4.875 -13.953125 C 5.582031 -15.078125 6.671875 -15.640625 8.140625 -15.640625 C 8.753906 -15.640625 9.3125 -15.539062 9.8125 -15.34375 C 10.3125 -15.15625 10.765625 -14.890625 11.171875 -14.546875 C 11.585938 -14.203125 11.941406 -13.785156 12.234375 -13.296875 C 12.535156 -12.804688 12.78125 -12.28125 12.96875 -11.71875 C 13.007812 -11.5625 13.0625 -11.484375 13.125 -11.484375 C 13.207031 -11.484375 13.25 -11.578125 13.25 -11.765625 L 13.25 -15.59375 C 13.25 -15.738281 13.234375 -15.832031 13.203125 -15.875 C 13.171875 -15.925781 13.125 -15.953125 13.0625 -15.953125 C 12.976562 -15.953125 12.875 -15.890625 12.75 -15.765625 L 11.84375 -14.828125 C 11.332031 -15.234375 10.765625 -15.539062 10.140625 -15.75 C 9.515625 -15.96875 8.847656 -16.078125 8.140625 -16.078125 C 7.109375 -16.078125 6.148438 -15.835938 5.265625 -15.359375 C 4.378906 -14.890625 3.609375 -14.269531 2.953125 -13.5 C 2.304688 -12.738281 1.800781 -11.863281 1.4375 -10.875 C 1.070312 -9.894531 0.890625 -8.90625 0.890625 -7.90625 C 0.890625 -6.75 1.097656 -5.660156 1.515625 -4.640625 C 1.929688 -3.628906 2.476562 -2.75 3.15625 -2 C 3.832031 -1.25 4.59375 -0.648438 5.4375 -0.203125 C 6.28125 0.234375 7.144531 0.453125 8.03125 0.453125 C 8.757812 0.453125 9.460938 0.304688 10.140625 0.015625 C 10.816406 -0.273438 11.421875 -0.71875 11.953125 -1.3125 L 13.203125 0.046875 C 13.273438 0.128906 13.34375 0.171875 13.40625 0.171875 C 13.5 0.171875 13.546875 0.113281 13.546875 0 L 13.546875 -4.546875 C 13.546875 -4.703125 13.507812 -4.78125 13.4375 -4.78125 Z M 13.4375 -4.78125 "/></g></g><g style="fill:#ffffff;fill-opacity:1;"><g transform="translate(21.38674, 20.972316)"><path style="stroke:none" d="M 0.515625 -0.375 L 0.515625 0 L 5.734375 0 L 5.734375 -0.375 L 2.96875 -0.375 L 4.453125 -4.921875 L 9.171875 -4.921875 L 10.703125 -0.375 L 8.28125 -0.375 L 8.28125 0 L 15.171875 0 L 15.171875 -0.375 L 13.125 -0.375 L 7.984375 -16.03125 L 7.6875 -16.03125 L 2.546875 -0.375 Z M 6.796875 -12.03125 L 9.0625 -5.296875 L 4.59375 -5.296875 Z M 6.796875 -12.03125 "/></g></g><g style="fill:#ffffff;fill-opacity:1;"><g transform="translate(42.661049, 20.972316)"><path style="stroke:none" d="M 12.421875 -1.015625 C 12.378906 -1.171875 12.34375 -1.390625 12.3125 -1.671875 C 12.289062 -1.953125 12.273438 -2.253906 12.265625 -2.578125 C 12.265625 -2.910156 12.257812 -3.25 12.25 -3.59375 C 12.238281 -3.945312 12.210938 -4.28125 12.171875 -4.59375 C 12.078125 -5.21875 11.914062 -5.734375 11.6875 -6.140625 C 11.46875 -6.546875 11.203125 -6.878906 10.890625 -7.140625 C 10.578125 -7.398438 10.21875 -7.601562 9.8125 -7.75 C 9.40625 -7.90625 8.96875 -8.046875 8.5 -8.171875 C 9.71875 -8.390625 10.65625 -8.820312 11.3125 -9.46875 C 11.976562 -10.125 12.3125 -10.945312 12.3125 -11.9375 C 12.3125 -12.539062 12.179688 -13.085938 11.921875 -13.578125 C 11.660156 -14.066406 11.3125 -14.472656 10.875 -14.796875 C 10.4375 -15.128906 9.914062 -15.378906 9.3125 -15.546875 C 8.707031 -15.722656 8.066406 -15.8125 7.390625 -15.8125 L 0.75 -15.8125 L 0.75 -15.4375 L 2.78125 -15.4375 L 2.78125 -0.375 L 0.75 -0.375 L 0.75 0 L 7.078125 0 L 7.078125 -0.375 L 5.0625 -0.375 L 5.0625 -8.078125 L 7.015625 -8.078125 C 7.265625 -8.078125 7.53125 -8.03125 7.8125 -7.9375 C 8.09375 -7.851562 8.351562 -7.6875 8.59375 -7.4375 C 8.84375 -7.195312 9.054688 -6.859375 9.234375 -6.421875 C 9.410156 -5.992188 9.539062 -5.445312 9.625 -4.78125 C 9.664062 -4.375 9.691406 -3.957031 9.703125 -3.53125 C 9.710938 -3.101562 9.738281 -2.691406 9.78125 -2.296875 C 9.820312 -1.910156 9.890625 -1.550781 9.984375 -1.21875 C 10.085938 -0.894531 10.25 -0.613281 10.46875 -0.375 C 10.675781 -0.15625 10.914062 -0.0078125 11.1875 0.0625 C 11.457031 0.144531 11.753906 0.1875 12.078125 0.1875 C 12.335938 0.1875 12.597656 0.160156 12.859375 0.109375 C 13.128906 0.0546875 13.378906 -0.0078125 13.609375 -0.09375 C 13.835938 -0.175781 14.035156 -0.257812 14.203125 -0.34375 C 14.367188 -0.425781 14.488281 -0.507812 14.5625 -0.59375 C 14.613281 -0.632812 14.640625 -0.679688 14.640625 -0.734375 C 14.640625 -0.773438 14.613281 -0.796875 14.5625 -0.796875 C 14.53125 -0.796875 14.484375 -0.78125 14.421875 -0.75 C 14.109375 -0.53125 13.753906 -0.421875 13.359375 -0.421875 C 12.878906 -0.421875 12.566406 -0.617188 12.421875 -1.015625 Z M 5.0625 -8.453125 L 5.0625 -15.4375 L 7.390625 -15.4375 C 9.179688 -15.4375 10.078125 -14.410156 10.078125 -12.359375 L 10.078125 -11.5 C 10.078125 -9.46875 9.179688 -8.453125 7.390625 -8.453125 Z M 5.0625 -8.453125 "/></g></g><g style="fill:#ffffff;fill-opacity:1;"><g transform="translate(63.15881, 20.972316)"><path style="stroke:none" d="M 7.34375 -15.4375 L 7.34375 -15.8125 L 1.015625 -15.8125 L 1.015625 -15.4375 L 3.03125 -15.4375 L 3.03125 -0.375 L 1.015625 -0.375 L 1.015625 0 L 7.34375 0 L 7.34375 -0.375 L 5.3125 -0.375 L 5.3125 -15.4375 Z M 7.34375 -15.4375 "/></g></g><g style="fill:#ffffff;fill-opacity:1;"><g transform="translate(77.232415, 20.972316)"><path style="stroke:none" d="M 12.359375 -12.140625 C 12.359375 -12.722656 12.222656 -13.242188 11.953125 -13.703125 C 11.679688 -14.171875 11.320312 -14.554688 10.875 -14.859375 C 10.4375 -15.160156 9.925781 -15.394531 9.34375 -15.5625 C 8.757812 -15.726562 8.15625 -15.8125 7.53125 -15.8125 L 0.6875 -15.8125 L 0.6875 -15.4375 L 2.703125 -15.4375 L 2.703125 -0.375 L 0.6875 -0.375 L 0.6875 0 L 7.71875 0 C 9.351562 0 10.617188 -0.375 11.515625 -1.125 C 12.421875 -1.882812 12.875 -2.929688 12.875 -4.265625 C 12.875 -4.953125 12.734375 -5.550781 12.453125 -6.0625 C 12.179688 -6.582031 11.84375 -7.023438 11.4375 -7.390625 C 11.03125 -7.753906 10.578125 -8.03125 10.078125 -8.21875 C 9.585938 -8.414062 9.128906 -8.539062 8.703125 -8.59375 C 9.222656 -8.6875 9.707031 -8.820312 10.15625 -9 C 10.601562 -9.175781 10.988281 -9.410156 11.3125 -9.703125 C 11.632812 -9.992188 11.890625 -10.335938 12.078125 -10.734375 C 12.265625 -11.140625 12.359375 -11.609375 12.359375 -12.140625 Z M 4.984375 -8.734375 L 4.984375 -15.4375 L 7.53125 -15.4375 C 7.925781 -15.4375 8.28125 -15.382812 8.59375 -15.28125 C 8.90625 -15.175781 9.171875 -15.003906 9.390625 -14.765625 C 9.609375 -14.523438 9.78125 -14.203125 9.90625 -13.796875 C 10.03125 -13.398438 10.09375 -12.910156 10.09375 -12.328125 L 10.09375 -11.953125 C 10.09375 -11.328125 10.03125 -10.804688 9.90625 -10.390625 C 9.78125 -9.972656 9.609375 -9.640625 9.390625 -9.390625 C 9.171875 -9.148438 8.898438 -8.976562 8.578125 -8.875 C 8.253906 -8.78125 7.90625 -8.734375 7.53125 -8.734375 Z M 4.984375 -0.375 L 4.984375 -8.359375 L 7.53125 -8.359375 C 8.613281 -8.359375 9.382812 -8.023438 9.84375 -7.359375 C 10.3125 -6.703125 10.546875 -5.765625 10.546875 -4.546875 L 10.546875 -3.984375 C 10.546875 -2.835938 10.320312 -1.945312 9.875 -1.3125 C 9.4375 -0.6875 8.65625 -0.375 7.53125 -0.375 Z M 4.984375 -0.375 "/></g></g><g style="fill:#ffffff;fill-opacity:1;"><g transform="translate(97.024224, 20.972316)"><path style="stroke:none" d="M 12.359375 -12.140625 C 12.359375 -12.722656 12.222656 -13.242188 11.953125 -13.703125 C 11.679688 -14.171875 11.320312 -14.554688 10.875 -14.859375 C 10.4375 -15.160156 9.925781 -15.394531 9.34375 -15.5625 C 8.757812 -15.726562 8.15625 -15.8125 7.53125 -15.8125 L 0.6875 -15.8125 L 0.6875 -15.4375 L 2.703125 -15.4375 L 2.703125 -0.375 L 0.6875 -0.375 L 0.6875 0 L 7.71875 0 C 9.351562 0 10.617188 -0.375 11.515625 -1.125 C 12.421875 -1.882812 12.875 -2.929688 12.875 -4.265625 C 12.875 -4.953125 12.734375 -5.550781 12.453125 -6.0625 C 12.179688 -6.582031 11.84375 -7.023438 11.4375 -7.390625 C 11.03125 -7.753906 10.578125 -8.03125 10.078125 -8.21875 C 9.585938 -8.414062 9.128906 -8.539062 8.703125 -8.59375 C 9.222656 -8.6875 9.707031 -8.820312 10.15625 -9 C 10.601562 -9.175781 10.988281 -9.410156 11.3125 -9.703125 C 11.632812 -9.992188 11.890625 -10.335938 12.078125 -10.734375 C 12.265625 -11.140625 12.359375 -11.609375 12.359375 -12.140625 Z M 4.984375 -8.734375 L 4.984375 -15.4375 L 7.53125 -15.4375 C 7.925781 -15.4375 8.28125 -15.382812 8.59375 -15.28125 C 8.90625 -15.175781 9.171875 -15.003906 9.390625 -14.765625 C 9.609375 -14.523438 9.78125 -14.203125 9.90625 -13.796875 C 10.03125 -13.398438 10.09375 -12.910156 10.09375 -12.328125 L 10.09375 -11.953125 C 10.09375 -11.328125 10.03125 -10.804688 9.90625 -10.390625 C 9.78125 -9.972656 9.609375 -9.640625 9.390625 -9.390625 C 9.171875 -9.148438 8.898438 -8.976562 8.578125 -8.875 C 8.253906 -8.78125 7.90625 -8.734375 7.53125 -8.734375 Z M 4.984375 -0.375 L 4.984375 -8.359375 L 7.53125 -8.359375 C 8.613281 -8.359375 9.382812 -8.023438 9.84375 -7.359375 C 10.3125 -6.703125 10.546875 -5.765625 10.546875 -4.546875 L 10.546875 -3.984375 C 10.546875 -2.835938 10.320312 -1.945312 9.875 -1.3125 C 9.4375 -0.6875 8.65625 -0.375 7.53125 -0.375 Z M 4.984375 -0.375 "/></g></g><g style="fill:#ffffff;fill-opacity:1;"><g transform="translate(116.816034, 20.972316)"><path style="stroke:none" d="M 5.078125 -8.140625 L 6.9375 -8.140625 C 7.28125 -8.140625 7.554688 -8.085938 7.765625 -7.984375 C 7.972656 -7.878906 8.132812 -7.734375 8.25 -7.546875 C 8.363281 -7.359375 8.453125 -7.128906 8.515625 -6.859375 C 8.578125 -6.597656 8.640625 -6.304688 8.703125 -5.984375 C 8.753906 -5.753906 8.816406 -5.640625 8.890625 -5.640625 C 8.984375 -5.640625 9.03125 -5.742188 9.03125 -5.953125 L 9.03125 -10.734375 C 9.03125 -10.921875 8.984375 -11.015625 8.890625 -11.015625 C 8.816406 -11.015625 8.753906 -10.90625 8.703125 -10.6875 C 8.640625 -10.351562 8.578125 -10.050781 8.515625 -9.78125 C 8.453125 -9.519531 8.363281 -9.296875 8.25 -9.109375 C 8.132812 -8.921875 7.972656 -8.773438 7.765625 -8.671875 C 7.554688 -8.566406 7.28125 -8.515625 6.9375 -8.515625 L 5.078125 -8.515625 L 5.078125 -15.4375 L 8.65625 -15.4375 C 9.1875 -15.4375 9.632812 -15.304688 10 -15.046875 C 10.363281 -14.785156 10.65625 -14.460938 10.875 -14.078125 C 11.09375 -13.691406 11.25 -13.285156 11.34375 -12.859375 C 11.445312 -12.429688 11.507812 -12.039062 11.53125 -11.6875 C 11.53125 -11.46875 11.59375 -11.359375 11.71875 -11.359375 C 11.832031 -11.359375 11.890625 -11.460938 11.890625 -11.671875 L 11.890625 -15.25 C 11.890625 -15.625 11.691406 -15.8125 11.296875 -15.8125 L 0.78125 -15.8125 L 0.78125 -15.4375 L 2.796875 -15.4375 L 2.796875 -0.375 L 0.796875 -0.375 L 0.796875 0 L 11.859375 0 C 12.316406 0 12.546875 -0.25 12.546875 -0.75 L 12.546875 -4.28125 C 12.546875 -4.65625 12.484375 -4.84375 12.359375 -4.84375 C 12.242188 -4.84375 12.15625 -4.679688 12.09375 -4.359375 C 11.96875 -3.753906 11.832031 -3.207031 11.6875 -2.71875 C 11.550781 -2.238281 11.363281 -1.820312 11.125 -1.46875 C 10.894531 -1.113281 10.597656 -0.84375 10.234375 -0.65625 C 9.867188 -0.46875 9.414062 -0.375 8.875 -0.375 L 5.078125 -0.375 Z M 5.078125 -8.140625 "/></g></g><g style="fill:#ffffff;fill-opacity:1;"><g transform="translate(136.043089, 20.972316)"><path style="stroke:none" d="M 0.515625 -0.375 L 0.515625 0 L 5.734375 0 L 5.734375 -0.375 L 2.96875 -0.375 L 4.453125 -4.921875 L 9.171875 -4.921875 L 10.703125 -0.375 L 8.28125 -0.375 L 8.28125 0 L 15.171875 0 L 15.171875 -0.375 L 13.125 -0.375 L 7.984375 -16.03125 L 7.6875 -16.03125 L 2.546875 -0.375 Z M 6.796875 -12.03125 L 9.0625 -5.296875 L 4.59375 -5.296875 Z M 6.796875 -12.03125 "/></g></g><g style="fill:#ffffff;fill-opacity:1;"><g transform="translate(157.317399, 20.972316)"><path style="stroke:none" d="M 0.640625 -0.375 L 0.640625 0 L 5.0625 0 L 5.0625 -0.375 L 3.03125 -0.375 L 3.03125 -14.75 L 12.140625 0.1875 L 12.9375 0.1875 L 12.9375 -15.4375 L 14.96875 -15.4375 L 14.96875 -15.8125 L 10.546875 -15.8125 L 10.546875 -15.4375 L 12.5625 -15.4375 L 12.5625 -3.875 L 5.265625 -15.8125 L 0.640625 -15.8125 L 0.640625 -15.4375 L 2.65625 -15.4375 L 2.65625 -0.375 Z M 0.640625 -0.375 "/></g></g><g style="fill:#ffffff;fill-opacity:1;"><g transform="translate(178.504039, 20.972316)"><path style="stroke:none" d=""/></g></g><g style="fill:#ffffff;fill-opacity:1;"><g transform="translate(190.553919, 20.972316)"><path style="stroke:none" d=""/></g></g><g style="fill:#ffffff;fill-opacity:1;"><g transform="translate(202.6038, 20.972316)"><path style="stroke:none" d=""/></g></g><g style="fill:#ffffff;fill-opacity:1;"><g transform="translate(214.660921, 20.972316)"><path style="stroke:none" d="M 12.359375 -12.140625 C 12.359375 -12.722656 12.222656 -13.242188 11.953125 -13.703125 C 11.679688 -14.171875 11.320312 -14.554688 10.875 -14.859375 C 10.4375 -15.160156 9.925781 -15.394531 9.34375 -15.5625 C 8.757812 -15.726562 8.15625 -15.8125 7.53125 -15.8125 L 0.6875 -15.8125 L 0.6875 -15.4375 L 2.703125 -15.4375 L 2.703125 -0.375 L 0.6875 -0.375 L 0.6875 0 L 7.71875 0 C 9.351562 0 10.617188 -0.375 11.515625 -1.125 C 12.421875 -1.882812 12.875 -2.929688 12.875 -4.265625 C 12.875 -4.953125 12.734375 -5.550781 12.453125 -6.0625 C 12.179688 -6.582031 11.84375 -7.023438 11.4375 -7.390625 C 11.03125 -7.753906 10.578125 -8.03125 10.078125 -8.21875 C 9.585938 -8.414062 9.128906 -8.539062 8.703125 -8.59375 C 9.222656 -8.6875 9.707031 -8.820312 10.15625 -9 C 10.601562 -9.175781 10.988281 -9.410156 11.3125 -9.703125 C 11.632812 -9.992188 11.890625 -10.335938 12.078125 -10.734375 C 12.265625 -11.140625 12.359375 -11.609375 12.359375 -12.140625 Z M 4.984375 -8.734375 L 4.984375 -15.4375 L 7.53125 -15.4375 C 7.925781 -15.4375 8.28125 -15.382812 8.59375 -15.28125 C 8.90625 -15.175781 9.171875 -15.003906 9.390625 -14.765625 C 9.609375 -14.523438 9.78125 -14.203125 9.90625 -13.796875 C 10.03125 -13.398438 10.09375 -12.910156 10.09375 -12.328125 L 10.09375 -11.953125 C 10.09375 -11.328125 10.03125 -10.804688 9.90625 -10.390625 C 9.78125 -9.972656 9.609375 -9.640625 9.390625 -9.390625 C 9.171875 -9.148438 8.898438 -8.976562 8.578125 -8.875 C 8.253906 -8.78125 7.90625 -8.734375 7.53125 -8.734375 Z M 4.984375 -0.375 L 4.984375 -8.359375 L 7.53125 -8.359375 C 8.613281 -8.359375 9.382812 -8.023438 9.84375 -7.359375 C 10.3125 -6.703125 10.546875 -5.765625 10.546875 -4.546875 L 10.546875 -3.984375 C 10.546875 -2.835938 10.320312 -1.945312 9.875 -1.3125 C 9.4375 -0.6875 8.65625 -0.375 7.53125 -0.375 Z M 4.984375 -0.375 "/></g></g><g style="fill:#ffffff;fill-opacity:1;"><g transform="translate(234.458088, 20.972316)"><path style="stroke:none" d=""/></g></g><g style="fill:#ffffff;fill-opacity:1;"><g transform="translate(246.507968, 20.972316)"><path style="stroke:none" d=""/></g></g><g style="fill:#ffffff;fill-opacity:1;"><g transform="translate(258.562676, 20.972316)"><path style="stroke:none" d="M 13.0625 -4.359375 C 12.9375 -3.753906 12.800781 -3.207031 12.65625 -2.71875 C 12.519531 -2.238281 12.332031 -1.820312 12.09375 -1.46875 C 11.851562 -1.113281 11.550781 -0.84375 11.1875 -0.65625 C 10.832031 -0.46875 10.382812 -0.375 9.84375 -0.375 L 5.015625 -0.375 L 5.015625 -15.4375 L 7.25 -15.4375 L 7.25 -15.8125 L 0.703125 -15.8125 L 0.703125 -15.4375 L 2.734375 -15.4375 L 2.734375 -0.375 L 0.703125 -0.375 L 0.703125 0 L 12.828125 0 C 13.273438 0 13.5 -0.25 13.5 -0.75 L 13.5 -4.28125 C 13.5 -4.65625 13.4375 -4.84375 13.3125 -4.84375 C 13.207031 -4.84375 13.125 -4.679688 13.0625 -4.359375 Z M 13.0625 -4.359375 "/></g></g><g style="fill:#ffffff;fill-opacity:1;"><g transform="translate(278.378015, 20.972316)"><path style="stroke:none" d="M 7.34375 -15.4375 L 7.34375 -15.8125 L 1.015625 -15.8125 L 1.015625 -15.4375 L 3.03125 -15.4375 L 3.03125 -0.375 L 1.015625 -0.375 L 1.015625 0 L 7.34375 0 L 7.34375 -0.375 L 5.3125 -0.375 L 5.3125 -15.4375 Z M 7.34375 -15.4375 "/></g></g></g></g></g><g clip-rule="nonzero" clip-path="url(#2b88f41256)"><path style=" stroke:none;fill-rule:evenodd;fill:#ffffff;fill-opacity:1;" d="M 249.800781 10.121094 L 249.554688 10.414062 L 249.144531 11.550781 L 249.007812 12.820312 L 248.78125 12.1875 L 248.417969 12.820312 L 248.828125 13.457031 L 248.601562 13.914062 L 248.191406 13.140625 L 248.097656 13.960938 L 248.554688 14.460938 L 248.375 15.003906 L 247.78125 14.367188 L 247.828125 15.050781 L 248.328125 15.640625 L 248.328125 16.277344 L 247.964844 16.050781 L 247.371094 15.597656 L 247.554688 16.414062 L 248.148438 16.914062 L 248.191406 17.550781 L 247.644531 17.460938 L 246.917969 17.003906 L 247.28125 18.140625 L 247.964844 18.371094 L 248.007812 18.867188 L 247.417969 18.917969 L 247.371094 20.28125 L 247.78125 20.324219 L 247.691406 24.144531 L 247.011719 24.144531 L 247.011719 24.917969 L 247.328125 24.964844 L 247.328125 25.371094 L 247.738281 25.371094 L 247.738281 25.964844 L 247.144531 25.964844 L 247.144531 26.691406 L 252.464844 26.734375 L 252.464844 26.007812 L 251.875 26.007812 L 251.875 25.417969 L 252.285156 25.417969 L 252.285156 25.007812 L 252.601562 24.964844 L 252.601562 24.191406 L 251.917969 24.191406 L 251.828125 20.371094 L 252.238281 20.324219 L 252.195312 18.960938 L 251.601562 18.917969 L 251.644531 18.414062 L 252.328125 18.1875 L 252.691406 17.050781 L 251.964844 17.503906 L 251.417969 17.597656 L 251.464844 16.960938 L 252.054688 16.460938 L 252.238281 15.640625 L 251.644531 16.097656 L 251.285156 16.324219 L 251.285156 15.6875 L 251.785156 15.097656 L 251.828125 14.414062 L 251.238281 15.050781 L 251.058594 14.503906 L 251.511719 14.003906 L 251.417969 13.1875 L 251.007812 13.960938 L 250.78125 13.507812 L 251.191406 12.867188 L 250.828125 12.230469 L 250.601562 12.867188 L 250.464844 11.59375 L 249.957031 10.300781 Z M 249.105469 13.835938 L 250.3125 13.835938 L 250.3125 13.992188 L 249.105469 13.992188 Z M 250.53125 14.800781 L 250.53125 14.960938 L 248.925781 15 L 248.925781 14.839844 Z M 250.730469 15.96875 L 250.789062 16.167969 L 248.847656 16.1875 L 248.828125 16.007812 Z M 248.691406 17.136719 L 250.925781 17.15625 L 250.945312 17.332031 L 248.671875 17.3125 Z M 251.125 18.402344 L 251.164062 18.617188 L 248.375 18.660156 L 248.355469 18.5 Z M 249.285156 21.050781 L 250.152344 21.089844 L 250.628906 21.707031 L 250.667969 25.285156 L 248.828125 25.265625 L 248.691406 21.785156 Z M 249.285156 21.050781 "/></g><path style=" stroke:none;fill-rule:evenodd;fill:#ffffff;fill-opacity:1;" d="M 242.722656 26.878906 L 242.675781 26.195312 L 243.402344 25.742188 L 243.539062 24.421875 C 243.539062 24.421875 242.351562 23.574219 242.175781 23.011719 C 242.019531 22.511719 242.449219 21.285156 242.449219 21.285156 C 242.449219 21.285156 242.566406 22.164062 242.8125 22.421875 C 243.035156 22.652344 243.8125 22.785156 243.8125 22.785156 C 243.8125 22.785156 243.207031 22.039062 243.132812 21.648438 C 243.039062 21.191406 243.359375 20.101562 243.359375 20.101562 C 243.359375 20.101562 243.652344 21.023438 243.949219 21.285156 C 244.101562 21.421875 244.585938 21.511719 244.585938 21.511719 L 244.632812 20.921875 C 244.632812 20.921875 244.097656 20.5 243.996094 20.238281 C 243.851562 19.871094 243.996094 18.921875 243.996094 18.921875 C 243.996094 18.921875 244.257812 19.65625 244.496094 19.875 C 244.59375 19.96875 244.902344 20.058594 244.902344 20.058594 L 245.132812 19.285156 C 245.132812 19.285156 244.75 19.007812 244.675781 18.832031 C 244.558594 18.539062 244.675781 17.785156 244.675781 17.785156 C 244.675781 17.785156 244.878906 18.46875 245.132812 18.558594 C 245.3125 18.621094 245.722656 18.328125 245.722656 18.328125 C 245.722656 18.328125 245.269531 17.933594 245.222656 17.695312 C 245.167969 17.414062 245.496094 16.785156 245.496094 16.785156 L 246.039062 17.738281 L 246.039062 17.101562 L 245.769531 16.511719 L 246.675781 15.691406 L 246.722656 26.878906 Z M 242.722656 26.878906 "/><path style=" stroke:none;fill-rule:evenodd;fill:#ffffff;fill-opacity:1;" d="M 257.023438 26.78125 L 257.066406 26.097656 L 256.339844 25.644531 L 256.203125 24.324219 C 256.203125 24.324219 257.390625 23.476562 257.566406 22.914062 C 257.726562 22.414062 257.292969 21.1875 257.292969 21.1875 C 257.292969 21.1875 257.179688 22.066406 256.929688 22.324219 C 256.710938 22.554688 255.929688 22.6875 255.929688 22.6875 C 255.929688 22.6875 256.535156 21.941406 256.613281 21.550781 C 256.703125 21.089844 256.386719 20.003906 256.386719 20.003906 C 256.386719 20.003906 256.089844 20.921875 255.792969 21.1875 C 255.640625 21.320312 255.15625 21.414062 255.15625 21.414062 L 255.113281 20.824219 C 255.113281 20.824219 255.644531 20.402344 255.75 20.140625 C 255.894531 19.773438 255.75 18.824219 255.75 18.824219 C 255.75 18.824219 255.484375 19.554688 255.25 19.777344 C 255.152344 19.867188 254.839844 19.960938 254.839844 19.960938 L 254.613281 19.1875 C 254.613281 19.1875 254.992188 18.910156 255.066406 18.730469 C 255.1875 18.441406 255.066406 17.683594 255.066406 17.683594 C 255.066406 17.683594 254.867188 18.371094 254.613281 18.457031 C 254.433594 18.519531 254.019531 18.230469 254.019531 18.230469 C 254.019531 18.230469 254.476562 17.832031 254.519531 17.59375 C 254.574219 17.316406 254.25 16.683594 254.25 16.683594 L 253.703125 17.640625 L 253.703125 17.003906 L 253.976562 16.414062 L 253.066406 15.59375 L 253.019531 26.78125 Z M 257.023438 26.78125 "/><g clip-rule="nonzero" clip-path="url(#84e88a8ee6)"><path style=" stroke:none;fill-rule:evenodd;fill:#ffffff;fill-opacity:1;" d="M 241.648438 26.808594 L 242.480469 26.789062 L 242.402344 26.234375 L 243.054688 25.582031 L 243.074219 24.773438 L 241.332031 24.730469 L 241.332031 26.847656 Z M 241.648438 26.808594 "/></g><g clip-rule="nonzero" clip-path="url(#81ef30f35b)"><path style=" stroke:none;fill-rule:evenodd;fill:#ffffff;fill-opacity:1;" d="M 258.125 26.75 L 257.296875 26.730469 L 257.375 26.175781 L 256.722656 25.523438 L 256.703125 24.710938 L 258.441406 24.671875 L 258.441406 26.789062 Z M 258.125 26.75 "/></g><g transform="matrix(1,0,0,1,198,5)"><g clip-path="url(#1e7af56157)"><g style="fill:#cdab34;fill-opacity:1;"><g transform="translate(0.802619, 20.972316)"><path style="stroke:none" d="M 1.078125 -16.453125 L 1.078125 1.203125 L 1.71875 1.203125 L 1.71875 -16.453125 Z M 1.078125 -16.453125 "/></g></g></g></g></g></svg>