<svg xmlns="http://www.w3.org/2000/svg" xmlns:xlink="http://www.w3.org/1999/xlink" width="400" zoomAndPan="magnify" viewBox="0 0 300 30.000001" height="40" preserveAspectRatio="xMidYMid meet" version="1.2"><defs><clipPath id="f1a0ee4c28"><path d="M 178 15 L 295.160156 15 L 295.160156 17 L 178 17 Z M 178 15 "/></clipPath><clipPath id="f18aa48813"><path d="M 4.839844 15 L 122 15 L 122 17 L 4.839844 17 Z M 4.839844 15 "/></clipPath></defs><g id="11f51938ed"><g style="fill:#cdab34;fill-opacity:1;"><g transform="translate(125.554107, 18.87097)"><path style="stroke:none" d="M 5.078125 -6.53125 L 6.375 -6.53125 L 4.21875 0 L 2.234375 0 L 0.078125 -6.53125 L 1.375 -6.53125 L 3.21875 -0.5 Z M 5.078125 -6.53125 "/></g></g><g style="fill:#cdab34;fill-opacity:1;"><g transform="translate(134.832814, 18.87097)"><path style="stroke:none" d="M 3.609375 -1.015625 L 3.609375 0 L 0.703125 0 L 0.703125 -1.015625 L 1.578125 -1.015625 L 1.578125 -5.515625 L 0.703125 -5.515625 L 0.703125 -6.53125 L 3.609375 -6.53125 L 3.609375 -5.515625 L 2.75 -5.515625 L 2.75 -1.015625 Z M 3.609375 -1.015625 "/></g></g><g style="fill:#cdab34;fill-opacity:1;"><g transform="translate(142.04443, 18.87097)"><path style="stroke:none" d="M 0.734375 0 L 0.734375 -6.53125 L 1.921875 -6.53125 L 1.921875 -1.015625 L 5.140625 -1.015625 L 5.140625 0 Z M 0.734375 0 "/></g></g><g style="fill:#cdab34;fill-opacity:1;"><g transform="translate(150.324434, 18.87097)"><path style="stroke:none" d="M 0.734375 0 L 0.734375 -6.53125 L 1.921875 -6.53125 L 1.921875 -1.015625 L 5.140625 -1.015625 L 5.140625 0 Z M 0.734375 0 "/></g></g><g style="fill:#cdab34;fill-opacity:1;"><g transform="translate(158.604437, 18.87097)"><path style="stroke:none" d="M 0.21875 0 L 2.3125 -6.53125 L 4.25 -6.53125 L 6.390625 0 L 5.125 0 L 4.578125 -1.84375 L 2.03125 -1.84375 L 1.46875 0 Z M 3.296875 -6.03125 L 2.3125 -2.765625 L 4.296875 -2.765625 Z M 3.296875 -6.03125 "/></g></g><g style="fill:#cdab34;fill-opacity:1;"><g transform="translate(167.999276, 18.87097)"><path style="stroke:none" d="M 3.203125 0.125 C 2.847656 0.125 2.5 0.0820312 2.15625 0 C 1.8125 -0.0820312 1.5 -0.210938 1.21875 -0.390625 C 0.9375 -0.566406 0.710938 -0.800781 0.546875 -1.09375 C 0.390625 -1.382812 0.304688 -1.734375 0.296875 -2.140625 L 1.5 -2.140625 C 1.5 -2.109375 1.515625 -2.023438 1.546875 -1.890625 C 1.578125 -1.765625 1.644531 -1.628906 1.75 -1.484375 C 1.863281 -1.335938 2.039062 -1.207031 2.28125 -1.09375 C 2.53125 -0.988281 2.863281 -0.9375 3.28125 -0.9375 C 3.738281 -0.9375 4.078125 -1.019531 4.296875 -1.1875 C 4.515625 -1.363281 4.625 -1.546875 4.625 -1.734375 C 4.625 -1.953125 4.546875 -2.125 4.390625 -2.25 C 4.242188 -2.382812 4.046875 -2.488281 3.796875 -2.5625 C 3.546875 -2.644531 3.269531 -2.722656 2.96875 -2.796875 C 2.675781 -2.867188 2.378906 -2.945312 2.078125 -3.03125 C 1.785156 -3.125 1.515625 -3.242188 1.265625 -3.390625 C 1.023438 -3.546875 0.832031 -3.742188 0.6875 -3.984375 C 0.550781 -4.222656 0.492188 -4.53125 0.515625 -4.90625 C 0.546875 -5.445312 0.804688 -5.875 1.296875 -6.1875 C 1.785156 -6.5 2.429688 -6.65625 3.234375 -6.65625 C 3.703125 -6.65625 4.132812 -6.570312 4.53125 -6.40625 C 4.925781 -6.238281 5.242188 -5.988281 5.484375 -5.65625 C 5.734375 -5.332031 5.859375 -4.914062 5.859375 -4.40625 L 4.71875 -4.40625 C 4.71875 -4.644531 4.660156 -4.835938 4.546875 -4.984375 C 4.441406 -5.140625 4.304688 -5.253906 4.140625 -5.328125 C 3.972656 -5.410156 3.796875 -5.460938 3.609375 -5.484375 C 3.421875 -5.515625 3.253906 -5.53125 3.109375 -5.53125 C 2.722656 -5.53125 2.40625 -5.460938 2.15625 -5.328125 C 1.90625 -5.203125 1.78125 -5.015625 1.78125 -4.765625 C 1.769531 -4.546875 1.84375 -4.367188 2 -4.234375 C 2.15625 -4.109375 2.359375 -4.003906 2.609375 -3.921875 C 2.867188 -3.847656 3.148438 -3.78125 3.453125 -3.71875 C 3.753906 -3.65625 4.054688 -3.578125 4.359375 -3.484375 C 4.660156 -3.398438 4.929688 -3.285156 5.171875 -3.140625 C 5.421875 -2.992188 5.613281 -2.796875 5.75 -2.546875 C 5.894531 -2.304688 5.957031 -1.992188 5.9375 -1.609375 C 5.90625 -1.066406 5.632812 -0.640625 5.125 -0.328125 C 4.625 -0.0234375 3.984375 0.125 3.203125 0.125 Z M 3.203125 0.125 "/></g></g><g clip-rule="nonzero" clip-path="url(#f1a0ee4c28)"><path style="fill:none;stroke-width:1;stroke-linecap:butt;stroke-linejoin:miter;stroke:#cdab34;stroke-opacity:1;stroke-miterlimit:4;" d="M -0.00138022 0.501386 L 159.998447 0.501386 " transform="matrix(0.725806,0,0,0.725806,179.032252,15.604841)"/></g><g clip-rule="nonzero" clip-path="url(#f18aa48813)"><path style="fill:none;stroke-width:1;stroke-linecap:butt;stroke-linejoin:miter;stroke:#cdab34;stroke-opacity:1;stroke-miterlimit:4;" d="M 0.00156917 0.501907 L 160.001397 0.501907 " transform="matrix(0.725806,0,0,0.725806,4.838705,15.967744)"/></g></g></svg>